<mxfile host="Electron" modified="2023-11-04T20:44:33.486Z" agent="Mozilla/5.0 (Windows NT 10.0; Win64; x64) AppleWebKit/537.36 (KHTML, like Gecko) draw.io/21.6.8 Chrome/114.0.5735.289 Electron/25.5.0 Safari/537.36" etag="NE7Ebw80B4ySpgtfy7aV" version="21.6.8" type="device">
  <diagram name="Page-1" id="zLcztCf3osq_JmdDaR2B">
    <mxGraphModel dx="453" dy="706" grid="1" gridSize="10" guides="1" tooltips="1" connect="1" arrows="1" fold="1" page="1" pageScale="1" pageWidth="1169" pageHeight="1654" math="0" shadow="0">
      <root>
        <mxCell id="0" />
        <mxCell id="1" parent="0" />
        <mxCell id="jcyVDvVJCvf03xxQYHBn-5" value="&lt;span style=&quot;font-weight: normal;&quot;&gt;&amp;lt;&amp;lt;control&amp;gt;&amp;gt;&lt;br style=&quot;border-color: var(--border-color);&quot;&gt;ReadyUpControl&lt;/span&gt;" style="swimlane;fontStyle=1;align=center;verticalAlign=top;childLayout=stackLayout;horizontal=1;startSize=40;horizontalStack=0;resizeParent=1;resizeParentMax=0;resizeLast=0;collapsible=1;marginBottom=0;whiteSpace=wrap;html=1;" vertex="1" parent="1">
          <mxGeometry x="410" y="400" width="160" height="180" as="geometry" />
        </mxCell>
        <mxCell id="jcyVDvVJCvf03xxQYHBn-6" value="- GameData&amp;amp;&lt;br&gt;- ConnectControl&amp;amp;&lt;br&gt;- displayControl&amp;amp;&lt;br&gt;- RGBLED&amp;amp;" style="text;strokeColor=none;fillColor=none;align=left;verticalAlign=top;spacingLeft=4;spacingRight=4;overflow=hidden;rotatable=0;points=[[0,0.5],[1,0.5]];portConstraint=eastwest;whiteSpace=wrap;html=1;" vertex="1" parent="jcyVDvVJCvf03xxQYHBn-5">
          <mxGeometry y="40" width="160" height="70" as="geometry" />
        </mxCell>
        <mxCell id="jcyVDvVJCvf03xxQYHBn-7" value="" style="line;strokeWidth=1;fillColor=none;align=left;verticalAlign=middle;spacingTop=-1;spacingLeft=3;spacingRight=3;rotatable=0;labelPosition=right;points=[];portConstraint=eastwest;strokeColor=inherit;" vertex="1" parent="jcyVDvVJCvf03xxQYHBn-5">
          <mxGeometry y="110" width="160" height="8" as="geometry" />
        </mxCell>
        <mxCell id="jcyVDvVJCvf03xxQYHBn-8" value="+ void start()&lt;br&gt;+ void startGame()&lt;br&gt;+ void buttonPressed()" style="text;strokeColor=none;fillColor=none;align=left;verticalAlign=top;spacingLeft=4;spacingRight=4;overflow=hidden;rotatable=0;points=[[0,0.5],[1,0.5]];portConstraint=eastwest;whiteSpace=wrap;html=1;" vertex="1" parent="jcyVDvVJCvf03xxQYHBn-5">
          <mxGeometry y="118" width="160" height="62" as="geometry" />
        </mxCell>
      </root>
    </mxGraphModel>
  </diagram>
</mxfile>
